<svg width="20" height="20" viewBox="0 0 20 20" fill="none" xmlns="http://www.w3.org/2000/svg">
<path d="M16.6667 3.3335H3.33333C2.41286 3.3335 1.66666 4.07969 1.66666 5.00016V5.8335C1.66666 6.75397 2.41286 7.50016 3.33333 7.50016H16.6667C17.5871 7.50016 18.3333 6.75397 18.3333 5.8335V5.00016C18.3333 4.07969 17.5871 3.3335 16.6667 3.3335Z" stroke="white" stroke-opacity="0.6" stroke-width="2" stroke-linecap="round" stroke-linejoin="round"/>
<path d="M3.33334 7.5V15C3.33334 15.442 3.50893 15.866 3.82149 16.1785C4.13405 16.4911 4.55798 16.6667 5 16.6667H15C15.442 16.6667 15.866 16.4911 16.1785 16.1785C16.4911 15.866 16.6667 15.442 16.6667 15V7.5" stroke="white" stroke-opacity="0.6" stroke-width="2" stroke-linecap="round" stroke-linejoin="round"/>
<path d="M8.33334 10.8335H11.6667" stroke="white" stroke-opacity="0.6" stroke-width="2" stroke-linecap="round" stroke-linejoin="round"/>
</svg>
