<svg width="20" height="20" viewBox="0 0 20 20" fill="none" xmlns="http://www.w3.org/2000/svg">
<path d="M3.33333 16.6667H16.6667C17.1087 16.6667 17.5326 16.4911 17.8452 16.1785C18.1577 15.866 18.3333 15.442 18.3333 15V6.66667C18.3333 6.22464 18.1577 5.80072 17.8452 5.48816C17.5326 5.17559 17.1087 5 16.6667 5H10.0583C9.78382 4.99858 9.51391 4.92937 9.27258 4.79853C9.03125 4.66769 8.82598 4.47927 8.675 4.25L7.99166 3.25C7.84068 3.02073 7.63541 2.83231 7.39408 2.70147C7.15275 2.57063 6.88284 2.50142 6.60833 2.5H3.33333C2.8913 2.5 2.46738 2.67559 2.15482 2.98816C1.84226 3.30072 1.66666 3.72464 1.66666 4.16667V15C1.66666 15.9167 2.41666 16.6667 3.33333 16.6667Z" stroke="white" stroke-opacity="0.6" stroke-width="2" stroke-linecap="round" stroke-linejoin="round"/>
</svg>
