<svg width="20" height="20" viewBox="0 0 20 20" fill="none" xmlns="http://www.w3.org/2000/svg">
<path d="M5 11.6667L6.20833 9.25C6.34747 8.97388 6.56067 8.74191 6.8241 8.58002C7.08753 8.41814 7.3908 8.33272 7.7 8.33333H16.6667C16.9213 8.33289 17.1726 8.39078 17.4014 8.50257C17.6301 8.61436 17.8302 8.77707 17.9863 8.97822C18.1424 9.17937 18.2503 9.41361 18.3018 9.66296C18.3533 9.91231 18.347 10.1701 18.2833 10.4167L16.9917 15.4167C16.8992 15.7749 16.6901 16.0922 16.3974 16.3185C16.1047 16.5448 15.745 16.6673 15.375 16.6667H3.33333C2.8913 16.6667 2.46738 16.4911 2.15482 16.1785C1.84226 15.866 1.66666 15.442 1.66666 15V4.16667C1.66666 3.25 2.41666 2.5 3.33333 2.5H6.60833C6.88284 2.50142 7.15275 2.57063 7.39408 2.70147C7.63541 2.83231 7.84068 3.02073 7.99166 3.25L8.675 4.25C8.82598 4.47927 9.03125 4.66769 9.27258 4.79853C9.51391 4.92937 9.78382 4.99858 10.0583 5H15C15.442 5 15.8659 5.17559 16.1785 5.48816C16.4911 5.80072 16.6667 6.22464 16.6667 6.66667V8.33333" stroke="white" stroke-width="2" stroke-linecap="round" stroke-linejoin="round"/>
</svg>
